HIERARCHY
ROOT Hips
{
	OFFSET 0.00000 0.00000 0.00000
	CHANNELS 6 Xposition Yposition Zposition Zrotation Yrotation Xrotation 
	JOINT LHipJoint
	{
		OFFSET 0 0 0
		CHANNELS 3 Zrotation Yrotation Xrotation
		JOINT LeftHip
		{
			OFFSET 1.44361 -1.63093 0.70831
			CHANNELS 3 Zrotation Yrotation Xrotation
			JOINT LeftKnee
			{
				OFFSET 2.20103 -6.04728 0.00000
				CHANNELS 3 Zrotation Yrotation Xrotation
				JOINT LeftAnkle
				{
					OFFSET 2.54154 -6.98283 0.00000
					CHANNELS 3 Zrotation Yrotation Xrotation
					JOINT LeftToe
					{
						OFFSET 0.05971 -0.16406 1.77582
						CHANNELS 3 Zrotation Yrotation Xrotation
						End Site
						{
							OFFSET 0.00000 -0.00000 0.90832
						}
					}
				}
			}
		}
	}
	JOINT RHipJoint
	{
		OFFSET 0 0 0
		CHANNELS 3 Zrotation Yrotation Xrotation
		JOINT RightHip
		{
			OFFSET -1.65838 -1.63093 0.70830
			CHANNELS 3 Zrotation Yrotation Xrotation
			JOINT RightKnee
			{
				OFFSET -2.26926 -6.23475 0.00000
				CHANNELS 3 Zrotation Yrotation Xrotation
				JOINT RightAnkle
				{
					OFFSET -2.34808 -6.45129 0.00000
					CHANNELS 3 Zrotation Yrotation Xrotation
					JOINT RightToe
					{
						OFFSET -0.18633 -0.51195 1.68539
						CHANNELS 3 Zrotation Yrotation Xrotation
						End Site
						{
							OFFSET -0.00000 -0.00000 0.88927
						}
					}
				}
			}
		}
	}
	JOINT lowerback
	{
		OFFSET 0 0 0
		CHANNELS 3 Zrotation Yrotation Xrotation
		JOINT Chest
		{
			OFFSET -0.10393 2.01691 0.06920
			CHANNELS 3 Zrotation Yrotation Xrotation
			JOINT Chest2
			{
				OFFSET 0.04092 2.01302 -0.05283
				CHANNELS 3 Zrotation Yrotation Xrotation
				JOINT lowerneck
				{
					OFFSET 0 0 0
					CHANNELS 3 Zrotation Yrotation Xrotation
					JOINT Neck
					{
						OFFSET -0.02870 1.58978 -0.03113
						CHANNELS 3 Zrotation Yrotation Xrotation
						JOINT Head
						{
							OFFSET 0.11532 1.54326 -0.29195
							CHANNELS 3 Zrotation Yrotation Xrotation
							End Site
							{
								OFFSET 0.04056 1.59999 -0.09535
							}
						}
					}
				}
				JOINT LeftCollar
				{
					OFFSET 0 0 0
					CHANNELS 3 Zrotation Yrotation Xrotation
					JOINT LeftShoulder
					{
						OFFSET 3.30641 1.15764 0.01104
CHANNELS 3 Zrotation Xrotation Yrotation
						JOINT LeftElbow
						{
OFFSET 0 -4.632080 0.000000
CHANNELS 3 Zrotation Xrotation Yrotation
							JOINT LeftWrist
							{
OFFSET 0 -3.419240 -0.000000
CHANNELS 3 Zrotation Xrotation Yrotation
								JOINT lhand
								{
									OFFSET 0 0 0
CHANNELS 3 Zrotation Xrotation Yrotation
									JOINT LFingers
									{
OFFSET 0 -0.625370 -0.000000
CHANNELS 3 Zrotation Xrotation Yrotation
										End Site
										{
OFFSET 0 -0.504190 -0.000000
										}
									}
								}
								JOINT LThumb
								{
OFFSET 0 0.000000 0.000000
CHANNELS 3 Zrotation Xrotation Yrotation
									End Site
									{
OFFSET 0 -0.511890 0.511890
									}
								}
							}
						}
					}
				}
				JOINT RightCollar
				{
					OFFSET 0 0 0
					CHANNELS 3 Zrotation Yrotation Xrotation
					JOINT RightShoulder
					{
						OFFSET -3.78081 1.02180 -0.16609
CHANNELS 3 Zrotation Xrotation Yrotation
						JOINT RightElbow
						{
OFFSET 0 -4.406400 -0.000000
CHANNELS 3 Zrotation Xrotation Yrotation
							JOINT RightWrist
							{
OFFSET 0 -3.446750 0.000000
CHANNELS 3 Zrotation Xrotation Yrotation
								JOINT rhand
								{
									OFFSET 0 0 0
CHANNELS 3 Zrotation Xrotation Yrotation
									JOINT RFingers
									{
OFFSET 0 -0.513670 -0.000000
CHANNELS 3 Zrotation Xrotation Yrotation
										End Site
										{
OFFSET 0 -0.414140 -0.000000
										}
									}
								}
								JOINT RThumb
								{
OFFSET 0 0.000000 0.000000
CHANNELS 3 Zrotation Xrotation Yrotation
									End Site
									{
OFFSET 0 -0.420460 0.420460
									}
								}
							}
						}
					}
				}
			}
		}
	}
}
MOTION
Frames: 8
Frame Time: 0.008333333333333333
9.484000 16.632300 17.904400 179.817000 2.588300 -167.857000 0.000000 0.000000 0.000000 -20.204900 -11.296500 -7.362800 0.206200 2.923700 8.066400 0.284100 -5.750100 -9.702200 6.538600 -14.930700 -47.106700 0.000000 0.000000 0.000000 20.901500 3.816000 -6.455800 -0.227700 -3.071400 8.477600 -0.866000 -0.165000 -17.651300 -1.212500 6.985300 -19.671700 -6.717100 2.140100 -11.434500 1.384200 3.720600 -0.248900 5.844400 1.663000 5.638200 -0.647400 7.790900 -6.111800 2.602300 9.640800 18.173200 1.586200 4.553200 6.355500 -0.000000 -0.000000 0.000000 -1.921300 -1.486400 -16.156800 7.464000 -12.680400 0.830500 32.515200 22.558700 18.670900 0.000000 0.000000 0.000000 -7.125000 0.000000 0.000000 2.791500 8.163600 2.369700 -0.000000 -0.000000 0.000000 4.502500 7.312400 -7.459300 -14.292800 -23.151800 -2.942300 -23.864500 31.581400 37.371700 0.000000 0.000000 0.000000 7.125000 0.000000 -0.000000 15.217900 69.295000 -8.928400
9.487891 16.631772 17.904136 179.816341 2.572342 -167.889972 0.000000 0.000000 0.000000 -20.209120 -11.386051 -7.249444 0.202969 2.900752 8.002633 0.288386 -5.681387 -9.754691 6.539523 -14.931491 -47.110327 0.000000 0.000000 0.000000 20.928009 3.835058 -6.387219 -0.225920 -3.059530 8.444496 -0.867649 -0.203907 -17.681898 -1.284312 7.179767 -20.249758 -6.692767 2.191140 -11.430346 1.350899 3.785752 -0.203267 5.805889 1.691883 5.678623 -0.643575 7.788262 -6.136199 2.635074 9.635722 18.139239 1.595762 4.556102 6.347455 0.000000 0.000000 0.000000 -1.840651 -1.525175 -16.506959 7.490311 -12.723329 0.836303 32.547051 22.375905 18.536706 0.000000 0.000000 0.000000 -7.125000 0.000000 0.000000 2.831396 8.309862 2.395352 0.000000 0.000000 0.000000 4.569169 7.282396 -7.478226 -14.310473 -23.176792 -2.949224 -23.951149 31.486442 37.160088 0.000000 0.000000 0.000000 7.125000 0.000000 0.000000 14.856729 69.121174 -8.656054
9.492164 16.631468 17.904765 179.861917 2.543788 -167.900304 0.000000 0.000000 0.000000 -20.140002 -11.465398 -7.196097 0.201842 2.892790 7.980446 0.292067 -5.630658 -9.801410 6.539713 -14.931645 -47.111052 0.000000 0.000000 0.000000 21.012424 3.873024 -6.344402 -0.224649 -3.051009 8.420736 -0.867703 -0.252156 -17.699868 -1.370091 7.405131 -20.922583 -6.624813 2.238896 -11.438723 1.329395 3.841593 -0.175810 5.754145 1.718662 5.710150 -0.611021 7.793437 -6.068478 2.624737 9.644228 18.049987 1.582652 4.564551 6.309564 0.000000 0.000000 0.000000 -1.764021 -1.548803 -16.804505 7.520672 -12.772922 0.842999 32.488088 22.350247 18.320212 0.000000 0.000000 0.000000 -7.125000 0.000000 0.000000 2.824705 8.568779 2.375406 0.000000 0.000000 0.000000 4.641067 7.278475 -7.487426 -14.333311 -23.209151 -2.958189 -24.017487 31.427101 37.018818 0.000000 0.000000 0.000000 7.125000 0.000000 0.000000 14.605566 69.007708 -8.469611
9.496846 16.631402 17.906348 179.956875 2.501782 -167.886456 0.000000 0.000000 0.000000 -19.992553 -11.533847 -7.206846 0.202963 2.900835 8.002669 0.295100 -5.599137 -9.841965 6.539120 -14.931117 -47.108678 0.000000 0.000000 0.000000 21.158686 3.931186 -6.329104 -0.223924 -3.046063 8.406954 -0.866054 -0.310384 -17.704352 -1.470786 7.663497 -21.696625 -6.510270 2.283144 -11.460484 1.320493 3.887489 -0.167765 5.688268 1.743193 5.732175 -0.547781 7.806955 -5.902367 2.568356 9.667243 17.901681 1.545328 4.578927 6.239796 0.000000 0.000000 0.000000 -1.691681 -1.556255 -17.045857 7.555358 -12.829634 0.850648 32.332133 22.492421 18.015818 0.000000 0.000000 0.000000 -7.125000 0.000000 0.000000 2.768258 8.948019 2.306759 0.000000 0.000000 0.000000 4.718550 7.302412 -7.486239 -14.361667 -23.249376 -2.969333 -24.062131 31.405801 36.952677 0.000000 0.000000 0.000000 7.125000 0.000000 0.000000 14.471899 68.958713 -8.374917
9.501911 16.631655 17.908632 180.004003 2.463412 -167.874521 0.000000 0.000000 0.000000 -19.893826 -11.539352 -7.271547 0.205487 2.918765 8.052633 0.293988 -5.630369 -9.831119 6.538335 -14.930462 -47.105794 0.000000 0.000000 0.000000 21.241558 3.968175 -6.315399 -0.221987 -3.032954 8.370468 -0.861217 -0.371800 -17.677907 -1.401654 7.487632 -21.169061 -6.463389 2.308515 -11.457756 1.320583 3.915147 -0.177512 5.665246 1.759178 5.719380 -0.552205 7.836799 -5.746842 2.566245 9.709452 17.790682 1.537850 4.600891 6.177043 0.000000 0.000000 0.000000 -1.708559 -1.564982 -16.917135 7.572571 -12.857711 0.854471 32.197413 22.842175 17.884504 0.000000 0.000000 0.000000 -7.125000 0.000000 0.000000 2.700012 9.124779 2.240344 0.000000 0.000000 0.000000 4.733153 7.342357 -7.428741 -14.366809 -23.256631 -2.971422 -23.357059 30.969467 37.235055 0.000000 0.000000 0.000000 7.125000 0.000000 0.000000 15.708841 69.004547 -9.120877
9.507018 16.631533 17.910613 180.012656 2.433099 -167.857896 0.000000 0.000000 0.000000 -19.842194 -11.540249 -7.346998 0.208089 2.937091 8.103630 0.291992 -5.677079 -9.809312 6.534750 -14.927247 -47.091927 0.000000 0.000000 0.000000 21.276539 4.014280 -6.302937 -0.220098 -3.020073 8.334577 -0.857044 -0.438347 -17.660185 -1.343591 7.338355 -20.722009 -6.468884 2.333868 -11.451194 1.317412 3.949583 -0.190272 5.668882 1.777666 5.697080 -0.580743 7.867021 -5.659758 2.593409 9.749879 17.734768 1.547643 4.621807 6.140650 0.000000 0.000000 0.000000 -1.747879 -1.592771 -16.714930 7.574954 -12.861575 0.855014 32.127485 23.187197 17.834708 0.000000 0.000000 0.000000 -7.125000 0.000000 0.000000 2.662003 9.195575 2.204851 0.000000 0.000000 0.000000 4.726895 7.381835 -7.384124 -14.380522 -23.276047 -2.976857 -22.496852 30.521743 37.635499 0.000000 0.000000 0.000000 7.125000 0.000000 0.000000 17.294699 69.108049 -10.104619
9.512161 16.630939 17.912196 179.976387 2.412459 -167.835476 0.000000 0.000000 0.000000 -19.845953 -11.538139 -7.433318 0.210726 2.955489 8.154736 0.289091 -5.740055 -9.776275 6.527760 -14.920917 -47.064693 0.000000 0.000000 0.000000 21.255767 4.072376 -6.291925 -0.218317 -3.007807 8.300353 -0.853813 -0.511017 -17.654382 -1.306070 7.239507 -20.427111 -6.535420 2.359981 -11.440973 1.309895 3.993040 -0.205967 5.703239 1.799559 5.664636 -0.635871 7.897025 -5.655669 2.654011 9.787335 17.744462 1.577251 4.641128 6.136099 0.000000 0.000000 0.000000 -1.810855 -1.643745 -16.438496 7.559985 -12.837110 0.851717 32.135662 23.517836 17.877109 0.000000 0.000000 0.000000 -7.125000 0.000000 0.000000 2.661343 9.145590 2.206961 0.000000 0.000000 0.000000 4.697814 7.420082 -7.357549 -14.405646 -23.311656 -2.986749 -21.478623 30.077351 38.165419 0.000000 0.000000 0.000000 7.125000 0.000000 0.000000 19.249059 69.277919 -11.343362
9.516011 16.629976 17.912546 179.914861 2.390217 -167.795190 0.000000 0.000000 0.000000 -19.889753 -11.563380 -7.524874 0.214473 2.981279 8.226664 0.287175 -5.780546 -9.754942 6.522249 -14.915941 -47.043249 0.000000 0.000000 0.000000 21.196678 4.092710 -6.330934 -0.218631 -3.009957 8.306478 -0.855140 -0.538778 -17.678210 -1.344751 7.341174 -20.730498 -6.613970 2.382953 -11.468884 1.290858 4.037482 -0.213222 5.735192 1.820035 5.662500 -0.612148 7.938611 -5.654846 2.619560 9.848815 17.743129 1.566941 4.670552 6.137710 0.000000 0.000000 0.000000 -1.837670 -1.698292 -16.453504 7.563805 -12.843324 0.852547 32.113037 23.559929 17.863514 0.000000 0.000000 0.000000 -7.125000 0.000000 0.000000 2.648671 9.165647 2.195395 0.000000 0.000000 0.000000 4.663251 7.425064 -7.439395 -14.458369 -23.386137 -3.007667 -21.804502 30.801377 38.327694 0.000000 0.000000 0.000000 7.125000 0.000000 0.000000 19.055703 69.531322 -11.331757
